# xmcd
#
# Track frame offsets: 
#        180
#        12998
#        26768
#        40502
#        53258
#        67260
#        83000
#        97524
#        109750
#        123816
#        141845
#        153682
#
# Disc length: 2199 seconds
#
# Revision: 0
# Processed by: cddbd v1.5.2PL0 Copyright (c) Steve Scherf et al.
# Submitted via: ExactAudioCopyFreeDBPlugin 1.0
#
DISCID=8b08950c
DTITLE=Oberhauser Musikanten - Jubiläumsgruß
DYEAR=1900
DGENRE=Folk
TTITLE0=Jubiläumsgruß
TTITLE1=Mutti's Landler
TTITLE2=Südböhmische Polka
TTITLE3=Moravanka
TTITLE4=Swingmedley Amerika
TTITLE5=Hoch Heidecksburg
TTITLE6=Böhmischer Traum
TTITLE7=Die Lerche
TTITLE8=Bayrischer Landler
TTITLE9=Morgenblüten
TTITLE10=Amor Amor Amor
TTITLE11=Kitzbühlerstandschützen
EXTD=
EXTT0=
EXTT1=
EXTT2=
EXTT3=
EXTT4=
EXTT5=
EXTT6=
EXTT7=
EXTT8=
EXTT9=
EXTT10=
EXTT11=
PLAYORDER=
